<svg xmlns="http://www.w3.org/2000/svg" viewBox="0 0 131.79 622.96"><g id="Capa_2" data-name="Capa 2"><g id="Layer_1" data-name="Layer 1"><path d="M77.78,18Q92.2,36,92.18,77.78v160.6q0,30.25,7.93,45.73t25.2,19.81q6.48,1.43,6.48,7.2v6.48q0,6.48-6.48,7.2-17.28,4.32-25.2,19.45t-7.93,45.37V545.18q0,41.76-14.4,59.77T30.25,623H7.2c-4.79,0-7.2-2.41-7.2-7.2V610c0-4.8,2.41-7.2,7.2-7.2H28.09q23.05,0,32.77-13.68t9.72-44.65V391.78q0-31.69,7.2-49.69t23.77-25.93c2.4-1,2.4-2.16,0-3.6q-15.84-8.64-23.41-27t-7.56-49.33V78.5q0-31-9.72-44.65T28.09,20.16H7.2C2.41,20.16,0,17.77,0,13V7.2C0,2.41,2.41,0,7.2,0H30.25Q63.39,0,77.78,18Z"/></g></g></svg>