<svg xmlns="http://www.w3.org/2000/svg" viewBox="0 0 1089.96 632.26"><g id="Capa_2" data-name="Capa 2"><g id="Layer_1" data-name="Layer 1"><path id="V" d="M489.54,0l-70.9,168.21L257.22,579.47H232.33L0,0H79.2L126,103.34l152.37,353L400.53,162.93c7.55-17.35,13.58-33.19,18.11-46.77L464.65,0Z"/><path id="I" d="M437.43,89.17V606.89L359,631.76V89.17Z"/><g id="G"><path d="M866.78,318.12h77v87.81c0,33.13-13.86,64.71-39.28,85.5-18.49,16.18-40.06,32.35-54.69,37.75-45.45,16.94-86.27,25.42-124.78,25.42-76.26,0-140.19-25.42-191-75.49-50.07-50.07-75.49-114-75.49-191.8,0-76.26,23.88-143.27,72.41-201S644.94,0,727.36,0C798.22,0,857.53,25.42,903,77v2.31L885.26,97.82c-7.7-10.78-16.17-21.56-26.19-30-33.89-32.35-74.71-48.52-123.24-48.52-50.84,0-94,18.48-131.72,56.23-37,37-56.23,103.21-56.23,198.73C547.88,369,566.37,436,602.57,476c35.44,39.28,80.11,59.31,134,59.31,27,0,51.61-5.39,73.95-17,22.33-10.78,37-24.65,44.67-40.82,8.47-16.18,11.56-36.2,11.56-60.85Z"/><polygon points="806.95 400.2 943.58 400.2 943.58 317.32 789.62 317.32 806.95 400.2"/></g><path id="U" d="M1090,89.17V395.41a606.29,606.29,0,0,1-8.3,101.83c-3.77,21.88-16.59,43.75-33.94,64.87-16.6,21.12-40.73,38.47-71.66,51.3s-66.38,18.85-106.36,18.85c-48.27,0-88.25-8.29-121.44-24.13-32.44-16.6-55.82-37.72-69.4-63.37C664.53,519.12,663,386.36,663,386.36V89.17H740V388.62c0,58.09-.75,99.57,4.53,124.46,6,24.9,18.1,46,43,64.12,24.9,18.86,58.84,27.91,100.33,27.91,32.43,0,62.6-6,89.76-18.86,26.4-12.07,47.52-27.15,60.34-45.26,12.82-18.85,22.63-37.71,25.65-57.32a556.8,556.8,0,0,0,7.54-91.27V89.17Z"/></g></g></svg>